<?xml version="1.0" encoding="utf-8"?><svg width="auto" height="2020" style="overflow:visible " version="1.1" xmlns="http://www.w3.org/2000/svg"><rect x="20" y="20" width="200" height="40" style="fill:white;stroke:black;stroke-width:1" /><text x="30" y="30" font-size="10" style="fill:blue">rutas</text><rect x="240" y="20" width="200" height="40" style="fill:white;stroke:black;stroke-width:1" /><text x="250" y="30" font-size="10" style="fill:blue">ruta</text><path d="M220 40 C240 40 220 40 240 40" style="fill:transparent;stroke:black" /><rect x="460" y="20" width="200" height="40" style="fill:white;stroke:black;stroke-width:1" /><text x="470" y="30" font-size="10" style="fill:blue">nombre</text><path d="M440 40 C460 40 440 40 460 40" style="fill:transparent;stroke:black" /><rect x="526" y="20" width="137" height="40" style="fill:green;stroke:black;stroke-width:1" /><text x="536" y="30" font-size="8" style="fill:white">Travesía de Apaneca</text><rect x="460" y="70" width="200" height="40" style="fill:white;stroke:black;stroke-width:1" /><text x="470" y="80" font-size="10" style="fill:blue">tiporuta</text><path d="M440 40 C460 40 440 90 460 90" style="fill:transparent;stroke:black" /><rect x="526" y="70" width="137" height="40" style="fill:green;stroke:black;stroke-width:1" /><text x="536" y="80" font-size="8" style="fill:white">Senderismo</text><rect x="460" y="120" width="200" height="40" style="fill:white;stroke:black;stroke-width:1" /><text x="470" y="130" font-size="10" style="fill:blue">mtransporte</text><path d="M440 40 C460 40 440 140 460 140" style="fill:transparent;stroke:black" /><rect x="526" y="120" width="137" height="40" style="fill:green;stroke:black;stroke-width:1" /><text x="536" y="130" font-size="8" style="fill:white">A pie</text><rect x="460" y="170" width="200" height="40" style="fill:white;stroke:black;stroke-width:1" /><text x="470" y="180" font-size="10" style="fill:blue">duracion</text><path d="M440 40 C460 40 440 190 460 190" style="fill:transparent;stroke:black" /><rect x="526" y="170" width="137" height="40" style="fill:green;stroke:black;stroke-width:1" /><text x="536" y="180" font-size="8" style="fill:white">7 horas y 24 minutos</text><rect x="460" y="220" width="200" height="40" style="fill:white;stroke:black;stroke-width:1" /><text x="470" y="230" font-size="10" style="fill:blue">agencia</text><path d="M440 40 C460 40 440 240 460 240" style="fill:transparent;stroke:black" /><rect x="526" y="220" width="137" height="40" style="fill:green;stroke:black;stroke-width:1" /><text x="536" y="230" font-size="8" style="fill:white">Federación Salvadoreña de Montañismo y Escalada</text><rect x="460" y="270" width="200" height="40" style="fill:white;stroke:black;stroke-width:1" /><text x="470" y="280" font-size="10" style="fill:blue">descripcion</text><path d="M440 40 C460 40 440 290 460 290" style="fill:transparent;stroke:black" /><rect x="526" y="270" width="137" height="40" style="fill:green;stroke:black;stroke-width:1" /><text x="536" y="280" font-size="8" style="fill:white">Va por Cerro Grande de Apaneca, Laguna de las Ninfas y Laguna verde</text><rect x="460" y="320" width="200" height="40" style="fill:white;stroke:black;stroke-width:1" /><text x="470" y="330" font-size="10" style="fill:blue">padmitidas</text><path d="M440 40 C460 40 440 340 460 340" style="fill:transparent;stroke:black" /><rect x="526" y="320" width="137" height="40" style="fill:green;stroke:black;stroke-width:1" /><text x="536" y="330" font-size="8" style="fill:white">Personas con buena forma física</text><rect x="460" y="370" width="200" height="40" style="fill:white;stroke:black;stroke-width:1" /><text x="470" y="380" font-size="10" style="fill:blue">linicio</text><path d="M440 40 C460 40 440 390 460 390" style="fill:transparent;stroke:black" /><rect x="526" y="370" width="137" height="40" style="fill:green;stroke:black;stroke-width:1" /><text x="536" y="380" font-size="8" style="fill:white">Cerro Grande de Apaneca</text><rect x="460" y="420" width="200" height="40" style="fill:white;stroke:black;stroke-width:1" /><text x="470" y="430" font-size="10" style="fill:blue">dinicio</text><path d="M440 40 C460 40 440 440 460 440" style="fill:transparent;stroke:black" /><rect x="526" y="420" width="137" height="40" style="fill:green;stroke:black;stroke-width:1" /><text x="536" y="430" font-size="8" style="fill:white">Cerro Grande de Apaneca</text><rect x="460" y="470" width="200" height="40" style="fill:white;stroke:black;stroke-width:1" /><text x="470" y="480" font-size="10" style="fill:blue">coordenadas</text><path d="M440 40 C460 40 440 490 460 490" style="fill:transparent;stroke:black" /><text x="470" y="490" font-size="8" style="fill:black">longitud: -89.7986111</text><text x="470" y="500" font-size="8" style="fill:black">latitud: 13.8413889</text><text x="470" y="510" font-size="8" style="fill:black">altitud: 1.831</text><rect x="460" y="520" width="200" height="40" style="fill:white;stroke:black;stroke-width:1" /><text x="470" y="530" font-size="10" style="fill:blue">bibliografia</text><path d="M440 40 C460 40 440 540 460 540" style="fill:transparent;stroke:black" /><rect x="680" y="520" width="200" height="40" style="fill:white;stroke:black;stroke-width:1" /><text x="690" y="530" font-size="10" style="fill:blue">referencia</text><path d="M660 540 C680 540 660 540 680 540" style="fill:transparent;stroke:black" /><rect x="746" y="520" width="137" height="40" style="fill:green;stroke:black;stroke-width:1" /><text x="756" y="530" font-size="8" style="fill:white">Referencia 1: https://es.wikiloc.com/rutas-senderismo/travesia-de-apaneca-cerro-grande-de-apaneca-laguna-de-las-ninfas-y-laguna-verde-113755632</text><rect x="680" y="570" width="200" height="40" style="fill:white;stroke:black;stroke-width:1" /><text x="690" y="580" font-size="10" style="fill:blue">referencia</text><path d="M660 540 C680 540 660 590 680 590" style="fill:transparent;stroke:black" /><rect x="746" y="570" width="137" height="40" style="fill:green;stroke:black;stroke-width:1" /><text x="756" y="580" font-size="8" style="fill:white">Referencia 2: https://m.facebook.com/FSME.SV/posts/6117128581637022/?locale=ms_MY</text><rect x="680" y="620" width="200" height="40" style="fill:white;stroke:black;stroke-width:1" /><text x="690" y="630" font-size="10" style="fill:blue">referencia</text><path d="M660 540 C680 540 660 640 680 640" style="fill:transparent;stroke:black" /><rect x="746" y="620" width="137" height="40" style="fill:green;stroke:black;stroke-width:1" /><text x="756" y="630" font-size="8" style="fill:white">Referencia 3: https://es.wikiloc.com/rutas-senderismo/travesia-cerro-de-apaneca-cerro-las-ninfas-cerro-laguna-verde-cerro-cuyanausul-y-cerro-cachio-47103227</text><rect x="460" y="720" width="200" height="40" style="fill:white;stroke:black;stroke-width:1" /><text x="470" y="730" font-size="10" style="fill:blue">recomendacion</text><path d="M440 40 C460 40 440 740 460 740" style="fill:transparent;stroke:black" /><rect x="526" y="720" width="137" height="40" style="fill:green;stroke:black;stroke-width:1" /><text x="536" y="730" font-size="8" style="fill:white">7</text><rect x="460" y="770" width="200" height="40" style="fill:white;stroke:black;stroke-width:1" /><text x="470" y="780" font-size="10" style="fill:blue">hitos</text><path d="M440 40 C460 40 440 790 460 790" style="fill:transparent;stroke:black" /><rect x="680" y="770" width="200" height="40" style="fill:white;stroke:black;stroke-width:1" /><text x="690" y="780" font-size="10" style="fill:blue">hito</text><path d="M660 790 C680 790 660 790 680 790" style="fill:transparent;stroke:black" /><rect x="900" y="770" width="200" height="40" style="fill:white;stroke:black;stroke-width:1" /><text x="910" y="780" font-size="10" style="fill:blue">hnombre</text><path d="M880 790 C900 790 880 790 900 790" style="fill:transparent;stroke:black" /><rect x="966" y="770" width="137" height="40" style="fill:green;stroke:black;stroke-width:1" /><text x="976" y="780" font-size="8" style="fill:white">Portón de acceso</text><rect x="900" y="820" width="200" height="40" style="fill:white;stroke:black;stroke-width:1" /><text x="910" y="830" font-size="10" style="fill:blue">hdescripcion</text><path d="M880 790 C900 790 880 840 900 840" style="fill:transparent;stroke:black" /><rect x="966" y="820" width="137" height="40" style="fill:green;stroke:black;stroke-width:1" /><text x="976" y="830" font-size="8" style="fill:white">Se ha llegado al punto de acceso (Portón de acceso)</text><rect x="900" y="870" width="200" height="40" style="fill:white;stroke:black;stroke-width:1" /><text x="910" y="880" font-size="10" style="fill:blue">hcoordenadas</text><path d="M880 790 C900 790 880 890 900 890" style="fill:transparent;stroke:black" /><text x="910" y="890" font-size="8" style="fill:black">longitud: -89.7986111</text><text x="910" y="900" font-size="8" style="fill:black">latitud: 13.8413889</text><text x="910" y="910" font-size="8" style="fill:black">altitud: 1.840</text><rect x="900" y="920" width="200" height="40" style="fill:white;stroke:black;stroke-width:1" /><text x="910" y="930" font-size="10" style="fill:blue">distancia</text><path d="M880 790 C900 790 880 940 900 940" style="fill:transparent;stroke:black" /><rect x="966" y="920" width="137" height="40" style="fill:green;stroke:black;stroke-width:1" /><text x="976" y="930" font-size="8" style="fill:white">0</text><rect x="900" y="970" width="200" height="40" style="fill:white;stroke:black;stroke-width:1" /><text x="910" y="980" font-size="10" style="fill:blue">galeria-fotografias</text><path d="M880 790 C900 790 880 990 900 990" style="fill:transparent;stroke:black" /><rect x="1120" y="970" width="200" height="40" style="fill:white;stroke:black;stroke-width:1" /><text x="1130" y="980" font-size="10" style="fill:blue">fotografia</text><path d="M1100 990 C1120 990 1100 990 1120 990" style="fill:transparent;stroke:black" /><rect x="1186" y="970" width="137" height="40" style="fill:green;stroke:black;stroke-width:1" /><text x="1196" y="980" font-size="8" style="fill:white">Apaneca1</text><rect x="1120" y="1020" width="200" height="40" style="fill:white;stroke:black;stroke-width:1" /><text x="1130" y="1030" font-size="10" style="fill:blue">fotografia</text><path d="M1100 990 C1120 990 1100 1040 1120 1040" style="fill:transparent;stroke:black" /><rect x="1186" y="1020" width="137" height="40" style="fill:green;stroke:black;stroke-width:1" /><text x="1196" y="1030" font-size="8" style="fill:white">Apaneca2</text><rect x="680" y="1170" width="200" height="40" style="fill:white;stroke:black;stroke-width:1" /><text x="690" y="1180" font-size="10" style="fill:blue">hito</text><path d="M660 790 C680 790 660 1190 680 1190" style="fill:transparent;stroke:black" /><rect x="900" y="1170" width="200" height="40" style="fill:white;stroke:black;stroke-width:1" /><text x="910" y="1180" font-size="10" style="fill:blue">hnombre</text><path d="M880 1190 C900 1190 880 1190 900 1190" style="fill:transparent;stroke:black" /><rect x="966" y="1170" width="137" height="40" style="fill:green;stroke:black;stroke-width:1" /><text x="976" y="1180" font-size="8" style="fill:white">Vista a Apaneca desde ascenso a Cerro Grande de Apaneca</text><rect x="900" y="1220" width="200" height="40" style="fill:white;stroke:black;stroke-width:1" /><text x="910" y="1230" font-size="10" style="fill:blue">hdescripcion</text><path d="M880 1190 C900 1190 880 1240 900 1240" style="fill:transparent;stroke:black" /><rect x="966" y="1220" width="137" height="40" style="fill:green;stroke:black;stroke-width:1" /><text x="976" y="1230" font-size="8" style="fill:white">Se ha llegado a ver Apaeca desde el Cerro Grande de Apaneca</text><rect x="900" y="1270" width="200" height="40" style="fill:white;stroke:black;stroke-width:1" /><text x="910" y="1280" font-size="10" style="fill:blue">hcoordenadas</text><path d="M880 1190 C900 1190 880 1290 900 1290" style="fill:transparent;stroke:black" /><text x="910" y="1290" font-size="8" style="fill:black">longitud: -89.7986111</text><text x="910" y="1300" font-size="8" style="fill:black">latitud: 13.8413889</text><text x="910" y="1310" font-size="8" style="fill:black">altitud: 1.831</text><rect x="900" y="1320" width="200" height="40" style="fill:white;stroke:black;stroke-width:1" /><text x="910" y="1330" font-size="10" style="fill:blue">distancia</text><path d="M880 1190 C900 1190 880 1340 900 1340" style="fill:transparent;stroke:black" /><rect x="966" y="1320" width="137" height="40" style="fill:green;stroke:black;stroke-width:1" /><text x="976" y="1330" font-size="8" style="fill:white">50</text><rect x="900" y="1370" width="200" height="40" style="fill:white;stroke:black;stroke-width:1" /><text x="910" y="1380" font-size="10" style="fill:blue">galeria-fotografias</text><path d="M880 1190 C900 1190 880 1390 900 1390" style="fill:transparent;stroke:black" /><rect x="1120" y="1370" width="200" height="40" style="fill:white;stroke:black;stroke-width:1" /><text x="1130" y="1380" font-size="10" style="fill:blue">fotografia</text><path d="M1100 1390 C1120 1390 1100 1390 1120 1390" style="fill:transparent;stroke:black" /><rect x="1186" y="1370" width="137" height="40" style="fill:green;stroke:black;stroke-width:1" /><text x="1196" y="1380" font-size="8" style="fill:white">Apaneca3</text><rect x="680" y="1520" width="200" height="40" style="fill:white;stroke:black;stroke-width:1" /><text x="690" y="1530" font-size="10" style="fill:blue">hito</text><path d="M660 790 C680 790 660 1540 680 1540" style="fill:transparent;stroke:black" /><rect x="900" y="1520" width="200" height="40" style="fill:white;stroke:black;stroke-width:1" /><text x="910" y="1530" font-size="10" style="fill:blue">hnombre</text><path d="M880 1540 C900 1540 880 1540 900 1540" style="fill:transparent;stroke:black" /><rect x="966" y="1520" width="137" height="40" style="fill:green;stroke:black;stroke-width:1" /><text x="976" y="1530" font-size="8" style="fill:white">Llegada a Laguna de las Ninfas</text><rect x="900" y="1570" width="200" height="40" style="fill:white;stroke:black;stroke-width:1" /><text x="910" y="1580" font-size="10" style="fill:blue">hdescripcion</text><path d="M880 1540 C900 1540 880 1590 900 1590" style="fill:transparent;stroke:black" /><rect x="966" y="1570" width="137" height="40" style="fill:green;stroke:black;stroke-width:1" /><text x="976" y="1580" font-size="8" style="fill:white">Se ha llegado a la laguna de las Ninfas</text><rect x="900" y="1620" width="200" height="40" style="fill:white;stroke:black;stroke-width:1" /><text x="910" y="1630" font-size="10" style="fill:blue">hcoordenadas</text><path d="M880 1540 C900 1540 880 1640 900 1640" style="fill:transparent;stroke:black" /><text x="910" y="1640" font-size="8" style="fill:black">longitud: -89.7986111</text><text x="910" y="1650" font-size="8" style="fill:black">latitud: 13.8413889</text><text x="910" y="1660" font-size="8" style="fill:black">altitud: 1.831</text><rect x="900" y="1670" width="200" height="40" style="fill:white;stroke:black;stroke-width:1" /><text x="910" y="1680" font-size="10" style="fill:blue">distancia</text><path d="M880 1540 C900 1540 880 1690 900 1690" style="fill:transparent;stroke:black" /><rect x="966" y="1670" width="137" height="40" style="fill:green;stroke:black;stroke-width:1" /><text x="976" y="1680" font-size="8" style="fill:white">100</text><rect x="900" y="1720" width="200" height="40" style="fill:white;stroke:black;stroke-width:1" /><text x="910" y="1730" font-size="10" style="fill:blue">galeria-fotografias</text><path d="M880 1540 C900 1540 880 1740 900 1740" style="fill:transparent;stroke:black" /><rect x="1120" y="1720" width="200" height="40" style="fill:white;stroke:black;stroke-width:1" /><text x="1130" y="1730" font-size="10" style="fill:blue">fotografia</text><path d="M1100 1740 C1120 1740 1100 1740 1120 1740" style="fill:transparent;stroke:black" /><rect x="1186" y="1720" width="137" height="40" style="fill:green;stroke:black;stroke-width:1" /><text x="1196" y="1730" font-size="8" style="fill:white">Apaneca4</text></svg>